<svg width="99" height="132" viewBox="0 0 99 132" fill="none" xmlns="http://www.w3.org/2000/svg">
<path d="M32.9244 131.934C20.9588 131.691 0.797638 129.734 8.84585 127.539L12.9757 128.052L16.3917 127.539L18.3801 125.89L21.0823 125.419C23.1047 125.263 27.3024 124.949 27.9143 124.949C28.5261 124.949 30.4465 125.263 31.3302 125.419L31.8401 128.052L35.2561 129.51H42.139C42.914 129.51 44.3313 128.851 44.9432 128.522L46.9826 124.949H50.3985L55.8029 124.057L61.1053 121L62.38 124.057L63.4506 125.89L67.3765 126.877L72.8319 125.89L74.1919 124.949C83.5477 130.659 54.6122 132.375 32.9244 131.934Z" fill="#878B92"/>
<path d="M18.2672 115.779C15.2485 122.281 9.07204 122.285 5.98794 121.476L4.78698 119.208L3.61353 114.368L5.02176 110.246L6.75841 106.317L8.77669 101.621L14.1373 92.7825L16.1574 88.3139L19.0136 85.3578L22.233 90.0135L25.705 94.1568L29.5829 97.6096C30.0489 97.717 31.0078 97.8674 31.116 97.6096C31.2242 97.3518 31.6421 96.0597 31.8375 95.4458L32.559 94.1568L33.0099 98.4843L35.9859 101.621C36.4068 101.956 37.3297 102.637 37.6543 102.674C37.979 102.71 39.7436 101.799 40.5853 101.339L41.8028 103.917L44.5534 107.876L46.4021 109.165C44.9446 111.921 40.5853 119.453 30.7777 114.964C29.3888 117.439 24.3451 121.069 18.2672 115.779Z" fill="#FAAF5E"/>
<path d="M53.1166 71.6147L48.6669 73.9049H47.9473L50.1066 78.6816L51.5789 81.4952L53.9672 82.5422L57.5006 82.7385L60.3143 81.0372C60.8923 79.2487 62.0679 75.6258 62.1465 75.4426C62.225 75.2594 62.4845 73.1197 62.6045 72.0727L61.3285 70.2406H56.5846L53.1166 71.6147Z" fill="#E9918F"/>
<path d="M54.9766 75.7169C54.9196 76.2663 55.3187 76.7578 55.868 76.8148C56.4174 76.8718 56.9089 76.4727 56.9659 75.9234L54.9766 75.7169ZM54.5629 71.3795C54.6148 71.6516 54.6947 71.9331 54.7582 72.1714C54.8256 72.4244 54.8909 72.685 54.9435 72.9921C55.047 73.5972 55.1095 74.4359 54.9766 75.7169L56.9659 75.9234C57.1159 74.4781 57.0518 73.4556 56.9148 72.6548C56.8471 72.2589 56.7637 71.9303 56.6908 71.6566C56.6139 71.3681 56.562 71.1854 56.5274 71.0045L54.5629 71.3795Z" fill="#643B40"/>
<path d="M45.2444 63.2048C47.6132 50.0441 41.1969 40.0851 36.9505 35.9921C36.4506 35.5102 35.7207 35.3757 35.0614 35.5933L33.0738 36.2495C32.3036 36.5038 31.4561 36.2677 30.9283 35.6519L29.3918 33.8592L17.6335 23.4202L11.4301 19.0885C11.1355 18.8828 10.791 18.7603 10.4328 18.7337L6.99579 18.4791C6.56616 18.4473 6.13775 18.5551 5.7743 18.7864L3.31188 20.3533C2.82662 20.6621 2.4978 21.1649 2.4094 21.7333L2.147 23.4202L1.10586 26.9605C1.0359 27.1985 1.01079 27.4473 1.03181 27.6944L2.11831 40.4623C2.1373 40.6855 2.19365 40.9039 2.28501 41.1084L5.89935 49.2C5.95964 49.335 6.03469 49.4628 6.12315 49.5813L9.34 53.8877C9.47647 54.0704 9.64317 54.2284 9.83291 54.3549L15.5687 58.1787L16.1783 58.5682C17.0142 59.1023 17.3323 60.1683 16.9258 61.0732L16.1378 62.8272C15.9549 63.2344 15.9134 63.6911 16.0201 64.1246L17.4219 69.8225C17.5462 70.3276 17.9992 70.6826 18.5193 70.6826C18.7278 70.6826 18.9322 70.625 19.1099 70.5161L19.3141 70.3909C20.3256 69.7711 21.6397 70.1848 22.2782 71.1846C25.4878 76.2104 30.1651 76.7414 32.8938 76.2139C33.468 76.1029 33.9083 75.6694 34.1515 75.1376C36.8032 69.3377 41.304 66.0432 44.007 64.7342C44.6297 64.4327 45.1219 63.8857 45.2444 63.2048Z" fill="#FAAF5E"/>
<path d="M59.4498 58.8555C53.2458 48.6889 53.5264 38.6963 55.4679 32.034L60.4595 17.1444C60.5067 17.0037 60.5694 16.8687 60.6464 16.7419L67.0951 6.12339C67.2101 5.93409 67.3557 5.7652 67.526 5.62361L71.0794 2.66949C71.3381 2.45445 71.6468 2.30812 71.977 2.24405L73.9809 1.85525C74.545 1.74581 75.1288 1.88425 75.5837 2.23529L79.0156 4.88371C79.3495 5.14141 79.5934 5.49808 79.7124 5.90274L82.8223 16.4767C83.0925 17.6251 83.643 19.9725 83.6835 20.1751C83.7217 20.3658 84.3012 23.5325 84.6368 25.3689C84.6766 25.5867 84.6798 25.8092 84.6466 26.0281L83.2701 35.094C83.2419 35.2798 83.1876 35.4607 83.1089 35.6313L78.8921 44.7757C78.7785 45.0221 78.6009 45.2335 78.3778 45.388C77.5546 45.9579 77.4992 47.1547 78.2662 47.7982L82.2448 51.1361C82.5466 51.3894 82.7209 51.7632 82.7209 52.1572C82.7209 52.8186 82.2359 53.38 81.5815 53.4759L80.808 53.5893C80.319 53.661 79.9565 54.0805 79.9565 54.5747C79.5888 60.8435 76.099 64.7379 73.6094 65.6301C73.0589 65.8274 72.4842 65.5749 72.0626 65.1695C68.4387 61.6845 64.1789 60.1272 61.6287 59.967C60.7778 59.9135 59.894 59.5833 59.4498 58.8555Z" fill="#FAAF5E"/>
<path d="M47.9677 109.843C47.9324 111.191 47.8494 112.937 47.716 114.842L47.9677 109.843Z" fill="white"/>
<path d="M55.4686 32.0164C58.3142 21.5994 65.9509 1.39023 74 2C84.0179 2.75892 89.6057 33.3563 77.5501 46.2949C77.4672 46.3839 77.4802 46.5251 77.5781 46.5972C79.7286 48.1796 83.4774 51.6585 82.9415 54.1762C82.92 54.2771 82.819 54.3371 82.7178 54.3169L79.766 53.7265C79.5706 53.6874 79.4353 53.9339 79.5684 54.0822C80.9858 55.661 83.272 59.0002 83.9438 63.0125C83.9641 63.1331 83.8703 63.2424 83.748 63.2424H81.8969C81.7538 63.2424 81.6564 63.3876 81.7077 63.5212C82.6105 65.8702 83.1476 70.0014 80.8387 73.4347M80.8387 73.4347C79.8274 74.9385 78.2699 76.3085 75.958 77.336M80.8387 73.4347C82.223 75.1388 84.7583 79.5438 84.0223 83.7289C84.0016 83.8464 83.881 83.9168 83.7675 83.88L80.6261 82.8595C80.4502 82.8023 80.2912 82.9959 80.3755 83.1605C81.3573 85.0778 82.5256 88.9857 80.936 92.5815C80.8865 92.6935 80.7473 92.7321 80.6458 92.6635L78.3228 91.0941C78.1792 90.9971 77.9869 91.1142 78.0073 91.2864C78.4165 94.7429 78.3338 101.313 75.0512 103.369C74.981 103.413 74.8908 103.405 74.8264 103.354L73.269 102.099C73.1425 101.997 72.9531 102.08 72.9403 102.242C72.6256 106.229 70.9327 114.205 65.7337 117.29C65.6032 117.368 65.4407 117.272 65.4407 117.12V115.074C65.4407 114.844 65.0515 114.772 64.9584 114.982C63.5135 118.238 58.5802 126.666 46.9607 124.271C46.8587 124.25 46.7863 124.153 46.7997 124.049L47.3031 120.178L47.6416 116.319L47.9677 109.843C47.8493 114.367 47.1929 123.38 45.8977 127.823C45.6291 128.744 44.8282 129.373 43.8783 129.51C41.1976 129.895 37.1811 130.161 34.0398 129.586C32.8811 129.374 32.1147 128.342 32.0053 127.17C31.5321 122.096 30.4987 113.86 29.0817 110.442M19.0865 84.4592C15.5936 89.3243 8.9821 101.051 5.61387 108.535C2.2611 115.986 4.33993 118.674 6.45073 122.144C6.46975 122.175 6.47992 122.211 6.47992 122.248L6.47986 125.995C6.47985 126.933 7.12912 127.748 8.05377 127.902C10.9157 128.379 15.1749 128.73 17.1535 127.6C19.5444 126.233 18.5721 120.742 18.5721 115.035M18.7826 125.433V125.433C23.0535 125.788 27.3463 125.794 31.6182 125.45L31.8334 125.433" stroke="#643B40" stroke-width="2" stroke-linecap="round"/>
<path d="M55.4995 31.9943C54.4488 32.454 42.4309 30.0898 31.8574 37.3138" stroke="#643B40" stroke-width="2"/>
<path d="M33.4896 38.8427C26.7323 30.7065 11.6182 15.2891 5.21957 18.709C-2.77874 22.984 -0.0207024 54.7015 19.4235 59.9418" stroke="#643B40" stroke-width="2" stroke-linecap="round"/>
<path d="M17.1783 59.2466C15.134 63.8606 16.3709 68.8848 17.9681 71.5765C18.0383 71.6947 18.2042 71.7044 18.2917 71.5983C18.7634 71.0256 20.0831 69.473 21.0687 68.7925C21.3222 68.6174 20.3215 71.9609 21.6912 75.9001M31.4788 84.944C25.55 82.9677 22.861 79.2645 21.6912 75.9001M21.6912 75.9001C21.0687 76.3635 17.0939 80.843 19.933 85.8903C22.7257 90.855 26.0207 96.1886 29.8505 97.6829C29.9553 97.7237 30.0709 97.6663 30.1104 97.561C30.5171 96.4783 31.7311 94.1689 32.2738 94.3911C32.5675 94.5114 30.0913 97.7463 38.557 103.065C38.6388 103.116 38.7494 103.103 38.8143 103.032L40.5798 101.086C40.6865 100.968 40.8816 101.014 40.9276 101.165C41.8278 104.138 44.9278 109.766 51.064 111.049" stroke="#643B40" stroke-width="2" stroke-linecap="round"/>
<path d="M26.1695 46.513C23.4477 47.9527 19.8094 48.4095 19.6804 54.4635C19.6771 54.614 19.5141 54.7134 19.3818 54.6416C7.34657 48.1111 4.78491 34.6629 6.79952 27.9669C7.18096 26.6991 8.02515 25.4319 9.34801 25.3793C12.8694 25.2394 19.3252 29.9709 24.6551 36.9658C24.7627 37.1071 24.6451 37.3148 24.4675 37.3084C23.2439 37.2646 21.267 37.6418 19.8735 39.8196C19.7867 39.9553 19.8951 40.1269 20.0555 40.1132C21.957 39.9513 24.423 39.8541 26.2914 42.5818C26.374 42.7023 26.2978 42.8678 26.1579 42.91C24.983 43.265 23.9711 44.7463 26.1747 46.1625C26.3049 46.2462 26.3063 46.4406 26.1695 46.513Z" fill="#F9D0D4" stroke="#643B40" stroke-width="2"/>
<path d="M63.6126 36.4954C66.7804 36.9854 73.8537 37.6258 74.4448 41.1626C74.4796 41.3712 74.8067 41.4703 74.9159 41.2892C81.9106 29.7008 80.2297 14.7909 75.0143 10.4384C74.3953 9.92177 73.5862 9.60886 72.8077 9.81886C69.4135 10.7344 65.1806 17.6098 62.7509 26.7731C62.7062 26.9416 62.8875 27.0907 63.0506 27.0293C64.1803 26.6038 66.1783 26.4453 68.2536 28.0283C68.3816 28.126 68.3396 28.3244 68.1842 28.3665C66.2729 28.8846 63.35 29.7185 62.5117 32.9344C62.4749 33.0758 62.6038 33.2038 62.7496 33.1935C63.9254 33.1108 65.0844 34.0806 63.4885 36.1659C63.3945 36.2888 63.4597 36.4717 63.6126 36.4954Z" fill="#FFD4DB" stroke="#643B40" stroke-width="2"/>
<circle cx="39.6748" cy="58.5398" r="3.35643" fill="#643B40"/>
<circle cx="63.7178" cy="54.2031" r="3.37627" fill="#643B40"/>
<path d="M59.9913 61.8487C60.3374 63.7084 58.027 67.9179 54.3384 68.6044C50.6498 69.2908 46.9798 66.1941 46.6337 64.3345C46.2876 62.4748 48.9973 60.4108 52.6859 59.7243C56.3745 59.0379 59.6452 59.989 59.9913 61.8487Z" fill="#643B40"/>
<path d="M51.512 88.3676C52.4812 88.783 57.589 91.8459 62.7065 86.6884" stroke="#643B40" stroke-width="2" stroke-linecap="round"/>
<path d="M61.6384 120.396C61.7609 121.982 62.5169 126.286 63.3113 126.421C66.056 126.884 68.7813 126.793 71.9433 126.552C72.8838 126.48 73.64 125.752 73.7728 124.818C74.3462 120.786 75.3313 115.015 75.8019 112.336C76.4739 108.511 79.5409 100.252 78.197 92.7566" stroke="#643B40" stroke-width="2"/>
<path d="M42.874 70.1723C43.0208 70.417 45.9637 77.6471 54.8455 70.626C55.089 70.4336 55.4115 70.3539 55.7166 70.4103C59.2636 71.0654 65.3539 70.4955 64.8226 63.8161" stroke="#643B40" stroke-width="2" stroke-linecap="round"/>
<path d="M48.6838 73.5987C49.3941 77.8872 50.9649 84.8123 57.7712 82.8846C59.7773 82.3165 63.0548 79.7659 61.8876 70.0528" stroke="#643B40" stroke-width="2"/>
</svg>
