<svg width="98" height="132" viewBox="0 0 98 132" fill="none" xmlns="http://www.w3.org/2000/svg">
<path d="M15.0323 83.2022C-5.89835 27.0575 13.6335 24.4747 29.5454 24.2583C70.0675 20.2013 68.6878 48.9584 72.7998 59.6714C76.7612 66.5028 81.4822 74.5427 84.3833 79.4721C86.1873 82.5375 88.2877 85.4217 90.0571 88.5071C91.7712 91.4963 93.6427 95.6595 93.9137 99.9264C95.334 122.286 78.9367 127.212 68.158 127.552C66.1104 127.617 64.1146 128.346 62.6641 129.793C60.942 131.471 41.1877 135.088 27.0201 110.003C22.5729 103.126 19.2808 94.5983 15.0323 83.2022Z" fill="#878B92"/>
<path d="M8.65441 45.6379C2.57886 24.084 3.59251 -13.8912 28.8541 19.8873C14.6292 24.0933 9.46061 38.8068 8.65441 45.6379Z" fill="#F9AE5D" stroke="#643B40" stroke-width="2"/>
<path d="M42.0115 19.0784C46.808 2.67173 61.8371 -18.2388 67.9126 35.8068C66.5139 30.2307 59.3753 19.0784 42.0115 19.0784Z" fill="#F9AE5D" stroke="#643B40" stroke-width="2"/>
<path d="M15.928 81.8194C-4.5371 31.8915 21.4988 18.8751 37.0608 18.6606C76.8474 18.6606 67.3616 48.6843 71.3832 59.3004C74.6911 65.0803 78.4328 71.8139 81.1553 76.7494C83.7203 81.3991 86.9879 85.6654 89.398 90.3972C90.6998 92.9531 91.8341 96.0222 92.0328 99.1912C93.3448 120.12 77.3931 125.989 66.8637 126.532C64.8512 126.636 62.8878 127.355 61.4704 128.788C59.7862 130.45 42.6034 131.636 27.4397 107.877C23.0903 101.062 20.4896 92.9482 15.928 81.8194Z" fill="#FAAF5E" stroke="#643B40" stroke-width="2"/>
<path d="M19.1546 41.0713C20.4523 39.9537 24.0505 40.2114 25.9205 42.0471C26.5459 42.661 25.6747 43.5164 24.8052 43.4058C22.818 43.1529 20.1749 43.4045 18.7688 44.85" stroke="#643B40" stroke-width="2" stroke-linecap="round"/>
<path d="M59.261 37.4874C57.9632 36.3698 54.365 36.6275 52.495 38.4632C51.8697 39.0771 52.7314 39.9082 53.5971 39.7707C55.6105 39.451 58.2998 39.6336 59.6468 41.2661" stroke="#643B40" stroke-width="2" stroke-linecap="round"/>
<path d="M44.8224 118.992C37.9408 115.621 30.9511 109.18 22.6962 89.7632C22.0829 89.0905 20.6081 86.8116 20.8175 86.057C21.0794 85.1137 26.6169 78.8636 22.6962 74.3822C16.2161 67.6555 7.49713 53.2443 24.4619 49.4126C26.6709 49.167 30.748 47.5499 30.5124 41.7139C30.2701 35.7125 37.6529 31.6797 43.9846 34.8508C46.9374 36.3296 48.0887 39.675 49.4885 42.666C50.1036 43.9804 50.9941 44.7204 53.252 45.0651C57.4294 45.7029 67.3254 41.3546 67.3254 52.8321C67.3254 58.4311 66.3416 61.4251 64.9851 63.1701C63.1463 65.5354 60.8058 67.8929 61.5482 70.7954C62.0423 72.727 62.8605 74.7106 64.2051 76.0562L62.0389 81.0631L65.5414 82.2443L70.3773 81.0631L73.3779 78.6306L74.1221 77.9147C78.1889 79.1357 78.6719 82.0572 78.2765 83.3008C79.0574 85.6231 79.9224 91.3621 77.1348 95.7394L84.1045 104.514C83.3514 105.697 82.6008 108.304 85.6238 109.27C88.6468 110.237 88.3721 114.678 87.8568 116.777L85.9293 118.992C85.4063 119.435 84.3156 120.366 84.1363 120.545C83.957 120.725 83.0156 121.457 82.5674 121.801L80.1916 122.878L77.9503 124.044L75.6193 124.762L69.9713 126.497H67.6991H65.1682C65.0182 126.497 64.1892 126.622 63.7934 126.685L62.4811 127.967L61.1062 128.811L59.4502 129.092C58.4295 129.29 56.3069 129.687 55.9819 129.687C55.657 129.687 54.6829 129.496 54.2246 129.559L51.6388 129.092L46.4433 126.968C42.3958 124.268 42.9154 120.305 44.8224 118.992Z" fill="white"/>
<path d="M45.8108 119.323C42.9417 116.736 41.595 113.401 40.9485 110.537C40.5263 108.666 41.3141 106.77 42.7446 105.493L44.6705 103.774C45.8286 102.74 47.3423 102.195 48.8937 102.254L52.0434 102.373C53.6327 102.433 55.1494 103.112 56.1702 104.332C62.2429 111.588 63.9339 118.113 63.6955 122.255C63.6061 123.806 64.0235 126.848 61.2628 128.934" stroke="#643B40" stroke-width="2" stroke-linecap="round"/>
<path d="M89.2969 113.957C86.3976 118.582 77.9532 122.087 65.6741 110.763C64.3736 109.564 63.7078 109.038 61.7838 106.114C60.7702 104.574 60.4682 102.677 60.8785 100.879L61.2466 99.2663C61.747 97.0735 63.2707 95.2547 65.3418 94.3777L66.588 93.8501C68.2581 93.143 70.1521 93.0709 71.8579 93.6872C75.3322 94.9424 79.8689 97.1186 84.8601 104.651" stroke="#643B40" stroke-width="2" stroke-linecap="round"/>
<path d="M21.5462 74.4109C22.1651 74.0995 37.7572 70.1729 40.7914 83.6228C40.9979 84.5379 40.8983 85.4908 40.6033 86.3813L39.8157 88.7584C39.1891 90.6495 37.6647 92.1063 35.747 92.6465L32.3824 93.5943C31.3589 93.8826 30.272 93.9121 29.2732 93.5471C25.8114 92.2824 20.9265 89.4035 20.5869 85.027" stroke="#643B40" stroke-width="2" stroke-linecap="round"/>
<path d="M64.0755 63.7948C63.4602 63.4852 47.1562 60.6121 43.9289 73.8616C43.6698 74.925 43.7897 76.0431 44.1339 77.082L44.6797 78.7292C45.4107 80.9356 47.1892 82.6352 49.4265 83.2654L52.0195 83.9958C53.2136 84.3322 54.4804 84.3631 55.664 83.9914C59.1331 82.902 63.8609 80.7457 64.0755 76.4288M61.3108 81.2528C62.2701 81.5745 69.1918 84.3836 74.308 76.9845" stroke="#643B40" stroke-width="2" stroke-linecap="round"/>
<path d="M36.495 34.1773C37.1145 33.9559 38.6965 33.6847 39.9015 33.7659C39.9015 33.2591 39.2228 30.1403 39.0918 26.6861C38.9917 24.0487 39.4437 21.2158 39.3799 19.2006H36.6278L35.3359 19.2522L33.8628 19.4148L33.9826 19.7388C34.8816 22.169 35.4845 24.6986 35.7783 27.273L36.495 34.1773Z" fill="white"/>
<path d="M24.8602 20.6542C17.4091 10.3293 5.56237 0.962297 10.2649 35.6145C11.7661 31.5649 16.1012 24.5003 24.8602 20.6542Z" fill="#FFD4DB"/>
<path d="M45.5832 18.5213C50.0325 6.38164 58.003 -7.10833 63.1889 26.3685C60.4942 23.5217 55.2492 19.8909 45.5832 18.5213Z" fill="#FFD4DB"/>
<path d="M44.7154 38.9927C45.1015 40.93 43.2944 45.2532 40.1296 45.8916C36.9648 46.5299 33.6408 43.2417 33.2547 41.3044C32.8687 39.367 35.1212 37.279 38.286 36.6407C41.4508 36.0023 44.3293 37.0553 44.7154 38.9927Z" fill="#643B40"/>
<path d="M33.8802 53.8574C32.1618 57.6788 25.788 57.0797 24.3867 54.9312C26.6724 58.4356 29.5468 60.9662 36.3006 60.1783C37.1384 62.6706 38.873 66.9073 43.5111 67.31C43.8687 67.341 44.2268 67.329 44.5836 67.2915C45.049 67.2024 45.5057 67.0774 45.9343 66.8766C49.8586 65.0385 50.2827 60.4914 49.9877 57.5526C56.5228 55.6986 57.7406 51.9878 58.4654 47.8849C58.021 50.4003 52.5435 53.6267 49.4529 50.7614C46.0244 47.5827 42.74 47.6815 40.7807 47.9915C38.8528 48.4543 35.7867 49.6179 33.8802 53.8574Z" fill="#643B40"/>
<path d="M15.928 81.8194C-4.5371 31.8915 21.4988 18.8751 37.0608 18.6606C76.8474 18.6606 67.3616 48.6843 71.3832 59.3004C74.6911 65.0803 78.4328 71.8139 81.1553 76.7494C83.7203 81.3991 86.9879 85.6654 89.398 90.3972C90.6998 92.9531 91.8341 96.0222 92.0328 99.1912C93.3448 120.12 77.3931 125.989 66.8637 126.532C64.8512 126.636 62.8878 127.355 61.4704 128.788C59.7862 130.45 42.6034 131.636 27.4397 107.877C23.0903 101.062 20.4896 92.9482 15.928 81.8194Z" stroke="#643B40" stroke-width="2"/>
<path d="M43.2853 54.5842C43.2524 54.2434 43.3822 53.8953 43.6868 53.7386C44.3557 53.3943 45.2831 53.2422 46.3986 53.3794C51.013 53.9471 49.9227 65.1865 44.7151 66.3104C39.7937 67.5032 34.2151 57.8233 38.2008 55.2711C39.205 54.6281 40.0981 54.365 40.8443 54.408C41.197 54.4284 41.4551 54.7146 41.5477 55.0555C42.2243 57.544 43.5558 61.1981 43.5411 61.0507C43.5379 61.0187 43.5396 60.821 43.5424 60.5062C43.5529 59.327 43.4707 56.5035 43.2853 54.5842Z" fill="#F9898B"/>
<path d="M40.9328 48.5342L40.3069 45.4338" stroke="#643B40" stroke-width="2"/>
<path d="M73.0288 94.0346C73.9881 92.4261 69.8604 73.1725 88.7266 88.9358" stroke="#643B40" stroke-width="2"/>
<path d="M54.6031 109.784C55.0527 110.716 54.3062 113.407 52.2959 114.469C50.2855 115.531 47.7726 114.561 47.323 113.629C46.8733 112.697 48.1386 111.081 50.1489 110.019C52.1593 108.957 54.1535 108.852 54.6031 109.784Z" fill="#FE898E"/>
<path d="M45.4221 110.569C46.1079 111.159 46.3299 112.069 45.9178 112.601C45.5058 113.133 44.6158 113.086 43.9299 112.496C43.2441 111.905 43.0221 110.995 43.4342 110.463C43.8462 109.931 44.7362 109.978 45.4221 110.569Z" fill="#FE898E"/>
<path d="M47.7479 107.219C48.3395 107.913 48.4253 108.847 47.9395 109.305C47.4536 109.763 46.5802 109.571 45.9886 108.877C45.3969 108.183 45.3112 107.249 45.797 106.791C46.2829 106.333 47.1563 106.525 47.7479 107.219Z" fill="#FE898E"/>
<path d="M51.3656 106.015C51.6042 106.911 51.2866 107.784 50.6562 107.965C50.0259 108.146 49.3215 107.566 49.0828 106.67C48.8442 105.774 49.1618 104.9 49.7922 104.719C50.4225 104.538 51.1269 105.118 51.3656 106.015Z" fill="#FE898E"/>
<path d="M55.1125 106.337C55.1199 107.266 54.5951 108.02 53.9404 108.02C53.2857 108.02 52.749 107.267 52.7416 106.338C52.7342 105.409 53.259 104.656 53.9137 104.656C54.5684 104.656 55.1052 105.409 55.1125 106.337Z" fill="#FE898E"/>
<path d="M66.7213 105.465C67.3055 106.318 70.001 106.992 71.9106 105.756C73.8201 104.52 74.2205 101.842 73.6363 100.989C73.0521 100.136 71.0305 100.446 69.121 101.682C67.2115 102.918 66.1371 104.611 66.7213 105.465Z" fill="#FE898E"/>
<path d="M71.9276 97.8164C72.0998 98.7078 72.7772 99.3507 73.4405 99.2525C74.1037 99.1542 74.5018 98.352 74.3295 97.4606C74.1573 96.5692 73.4799 95.9263 72.8166 96.0245C72.1534 96.1228 71.7553 96.925 71.9276 97.8164Z" fill="#FE898E"/>
<path d="M67.8837 98.2C68.1923 99.0601 68.9576 99.5957 69.5931 99.3963C70.2286 99.1969 70.4937 98.3379 70.1851 97.4778C69.8765 96.6176 69.1112 96.082 68.4757 96.2815C67.8402 96.4809 67.5752 97.3398 67.8837 98.2Z" fill="#FE898E"/>
<path d="M65.0585 100.772C65.7158 101.423 66.6276 101.576 67.0949 101.113C67.5623 100.651 67.4083 99.7485 66.7509 99.0977C66.0936 98.4469 65.1818 98.2942 64.7144 98.7566C64.2471 99.219 64.4011 100.121 65.0585 100.772Z" fill="#FE898E"/>
<path d="M63.4899 104.211C64.2895 104.675 65.1996 104.588 65.5226 104.015C65.8457 103.442 65.4594 102.601 64.6598 102.136C63.8602 101.672 62.9502 101.76 62.6271 102.333C62.304 102.905 62.6903 103.746 63.4899 104.211Z" fill="#FE898E"/>
<path d="M24.5994 49.4126C26.8083 49.1738 30.8854 47.6018 30.6498 41.9286C30.4093 36.139 37.9776 32.1464 44.1423 35.1398C47.1202 36.5857 48.2392 39.9881 49.571 43.0188C50.1778 44.3997 50.9516 44.8246 53.3894 45.1864" stroke="#643B40" stroke-width="2" stroke-linecap="round"/>
</svg>
